<svg width="24" height="24" viewBox="0 0 24 24" fill="none" xmlns="http://www.w3.org/2000/svg">
<g clip-path="url(#clip0)">
<path d="M21.0604 2.11157H19.9772V0.306152H18.1718V2.11157H6.25598V0.306152H4.45056V2.11157H3.36731C1.87405 2.11157 0.65918 3.32644 0.65918 4.8197V20.7074C0.65918 22.2007 1.87405 23.4155 3.36731 23.4155H21.0604C22.5537 23.4155 23.7686 22.2007 23.7686 20.7074V4.8197C23.7686 3.32644 22.5537 2.11157 21.0604 2.11157ZM21.9631 20.7074C21.9631 21.2052 21.5582 21.6101 21.0604 21.6101H3.36731C2.86956 21.6101 2.4646 21.2052 2.4646 20.7074V8.79163H21.9631V20.7074ZM21.9631 6.98621H2.4646V4.8197C2.4646 4.32195 2.86956 3.91699 3.36731 3.91699H4.45056V5.72241H6.25598V3.91699H18.1718V5.72241H19.9772V3.91699H21.0604C21.5582 3.91699 21.9631 4.32195 21.9631 4.8197V6.98621Z" fill="white"/>
<path d="M5.89526 10.687H4.08984V12.4924H5.89526V10.687Z" fill="white"/>
<path d="M9.5061 10.687H7.70068V12.4924H9.5061V10.687Z" fill="white"/>
<path d="M13.1169 10.687H11.3115V12.4924H13.1169V10.687Z" fill="white"/>
<path d="M16.7278 10.687H14.9224V12.4924H16.7278V10.687Z" fill="white"/>
<path d="M20.3386 10.687H18.5332V12.4924H20.3386V10.687Z" fill="white"/>
<path d="M5.89526 14.2979H4.08984V16.1033H5.89526V14.2979Z" fill="white"/>
<path d="M9.5061 14.2979H7.70068V16.1033H9.5061V14.2979Z" fill="white"/>
<path d="M13.1169 14.2979H11.3115V16.1033H13.1169V14.2979Z" fill="white"/>
<path d="M16.7278 14.2979H14.9224V16.1033H16.7278V14.2979Z" fill="white"/>
<path d="M5.89526 17.9087H4.08984V19.7141H5.89526V17.9087Z" fill="white"/>
<path d="M9.5061 17.9087H7.70068V19.7141H9.5061V17.9087Z" fill="white"/>
<path d="M13.1169 17.9087H11.3115V19.7141H13.1169V17.9087Z" fill="white"/>
<path d="M16.7278 17.9087H14.9224V19.7141H16.7278V17.9087Z" fill="white"/>
<path d="M20.3386 14.2979H18.5332V16.1033H20.3386V14.2979Z" fill="white"/>
</g>
<defs>
<clipPath id="clip0">
<rect width="23.1094" height="23.1094" fill="white" transform="translate(0.65918 0.306152)"/>
</clipPath>
</defs>
</svg>
