<svg width="30" height="29" viewBox="0 0 30 29" fill="none" xmlns="http://www.w3.org/2000/svg">
<path d="M14.8293 2.77344C8.28103 2.77344 2.95361 8.10085 2.95361 14.6491C2.95361 21.1973 8.28103 26.5247 14.8293 26.5247C21.3775 26.5247 26.7049 21.1973 26.7049 14.6491C26.7049 8.10085 21.3775 2.77344 14.8293 2.77344ZM14.8293 24.1496C9.59092 24.1496 5.32874 19.8874 5.32874 14.6491C5.32874 9.41074 9.59092 5.14857 14.8293 5.14857C20.0676 5.14857 24.3298 9.41074 24.3298 14.6491C24.3298 19.8874 20.0676 24.1496 14.8293 24.1496Z" fill="white"/>
<path d="M16.0167 8.71143H13.6416V15.1409L17.5523 19.0516L19.2315 17.3723L16.0167 14.1576V8.71143Z" fill="white"/>
</svg>
